<svg xmlns="http://www.w3.org/2000/svg" viewBox="0 0 207.67 208.29"><defs><style>.cls-1{fill:#fff;}</style></defs><title>Asset 1</title><g id="Layer_2" data-name="Layer 2"><g id="Layer_1-2" data-name="Layer 1"><path class="cls-1" d="M193.74,108.93a69.52,69.52,0,0,0,12-38h0c0-.29,0-.58,0-.87v-.39C205.74,31.15,175.74,0,134,0c-1.26,0-2.5,0-3.74.09L129,.17c-.82,0-1.64.1-2.44.17L125.1.5c-.72.08-1.44.16-2.15.26L121.42,1c-.67.11-1.34.22-2,.34l-1.55.31c-.64.13-1.27.27-1.9.42l-1.56.39-1.81.49L111,3.41,109.3,4l-1.55.54c-.55.2-1.1.41-1.64.62l-1.55.62c-.52.22-1,.45-1.54.67s-1,.46-1.56.7-.94.46-1.4.7-1.08.53-1.61.81l-1.11.62a69.74,69.74,0,0,0-6.54,4.12l-.54.38c-.63.46-1.25.94-1.87,1.42l-.7.54c-.6.48-1.18,1-1.76,1.47l-.7.6c-.57.5-1.14,1-1.69,1.55l-.65.61c-.56.54-1.11,1.09-1.65,1.65l-.58.6Q79.83,23.06,79,24l-.48.55q-.82.94-1.6,1.92l-.35.45q-.82,1-1.61,2.11l-.19.26A68.9,68.9,0,0,0,62.86,57.71v0q-.27,1.57-.48,3.17h0a71.88,71.88,0,0,0-.6,9.13v.39c0,.16,0,.32,0,.48h-.07v87.26c0,15.53-6.84,22.31-17.89,22.43-9.32-.12-16.77-5.13-24.42-13.53l-.32.36-.33-.36L0,188c9.29,11,23.22,20.32,44.31,20.32H45c14.7,0,26.89-4.26,35.21-12.58C88.3,187.59,93,175.59,93,159.53V70.91c0-.29,0-.58,0-.87v-.39a47,47,0,0,1,.82-8.74,44.91,44.91,0,0,1,1.2-4.83l.15-.51c.13-.4.27-.8.41-1.19l.21-.59q.21-.57.44-1.13l.25-.6q.23-.56.48-1.1l.27-.58c.17-.37.35-.73.53-1.1l.26-.49a41.21,41.21,0,0,1,2.17-3.67l.29-.45c.21-.31.43-.61.65-.91l.43-.59.65-.84.5-.62.66-.78.55-.61.68-.73.6-.61.69-.68.68-.62.67-.61q.66-.57,1.34-1.11l.64-.49.84-.63.7-.48.84-.56.73-.45.88-.52.74-.42.93-.49.73-.37,1-.48.68-.31c.45-.19.9-.37,1.36-.55L119,30c.59-.22,1.19-.43,1.8-.62l.59-.18,1.28-.37.74-.18,1.19-.28.79-.16,1.19-.21.8-.12,1.25-.16.78-.09,1.39-.1.68,0c.69,0,1.39-.05,2.1-.05,24,0,41,19.35,41,42.57v.39A47.43,47.43,0,0,1,170.91,89l-20-18.09h0l-2.25-2-1.81,2h0L129.69,90.17l22.06,18.77a40.69,40.69,0,0,1-17.8,3.68A39.81,39.81,0,0,1,102.3,97.53v36a76,76,0,0,0,31.27,6.52,73.81,73.81,0,0,0,40.25-11.61l14.9,13.35,19-21.09Z"/></g></g></svg>