<svg xmlns="http://www.w3.org/2000/svg" xmlns:xlink="http://www.w3.org/1999/xlink" viewBox="0 0 130.71 19.15"><defs><style>.cls-1{fill:#fff;}.cls-2{mask:url(#mask);}</style><mask id="mask" x="0" y="-108.43" width="130.71" height="127.57" maskUnits="userSpaceOnUse"><g id="mask-4"><polygon id="path-3" class="cls-1" points="0 -108.43 130.72 -108.43 130.72 19.14 0 19.14 0 -108.43"/></g></mask></defs><title>Asset 2</title><g id="Layer_2" data-name="Layer 2"><g id="Layer_1-2" data-name="Layer 1"><polygon id="Fill-12" class="cls-1" points="0 0 10.32 0 10.32 3.5 6.92 3.5 6.92 18.67 3.31 18.67 3.31 3.5 0 3.5 0 0"/><path id="Fill-14" class="cls-1" d="M22.81,7.3h2.11a4.35,4.35,0,0,0,2.34-.44,1.67,1.67,0,0,0,.64-1.48,1.8,1.8,0,0,0-.32-1.06,1.76,1.76,0,0,0-.85-.65,6.45,6.45,0,0,0-1.95-.2h-2ZM19.25,0H24a12.49,12.49,0,0,1,4.41.55,4.52,4.52,0,0,1,2.11,1.84,5.62,5.62,0,0,1,.8,3,5.16,5.16,0,0,1-.88,3.08,5.34,5.34,0,0,1-2.66,1.87l4.42,8.3H28.33l-4.2-7.91H22.81v7.91H19.25Z"/><g id="Group-18"><g class="cls-2"><path id="Fill-16" class="cls-1" d="M41.26,0h3.57V12.08a6.26,6.26,0,0,0,.27,2.21,2.18,2.18,0,0,0,.9,1,2.83,2.83,0,0,0,1.52.39,2.93,2.93,0,0,0,1.62-.43,2.26,2.26,0,0,0,.94-1.1,8.15,8.15,0,0,0,.26-2.54V0H53.9V11.13A16.11,16.11,0,0,1,53.59,15a5.54,5.54,0,0,1-1.21,2.11,5.6,5.6,0,0,1-2.06,1.5,7,7,0,0,1-2.72.49,6.58,6.58,0,0,1-3.54-.93,5.44,5.44,0,0,1-2.15-2.34,12.35,12.35,0,0,1-.65-4.74Z"/></g></g><polygon id="Fill-19" class="cls-1" points="64.66 0 73.93 0 73.93 3.46 68.19 3.46 68.19 6.86 73.93 6.86 73.93 10.27 68.19 10.27 68.19 18.67 64.66 18.67 64.66 0"/><polygon id="Fill-21" class="cls-1" points="83.77 0 93.04 0 93.04 3.46 87.3 3.46 87.3 6.86 93.04 6.86 93.04 10.27 87.3 10.27 87.3 18.67 83.77 18.67 83.77 0"/><polygon id="Fill-23" class="cls-1" points="102.84 0 106.39 0 106.39 15.29 111.57 15.29 111.57 18.67 102.84 18.67 102.84 0"/><polygon id="Fill-25" class="cls-1" points="120.52 0 130.71 0 130.71 3.48 124.05 3.48 124.05 6.86 130.71 6.86 130.71 10.27 124.05 10.27 124.05 15.18 130.71 15.18 130.71 18.67 120.52 18.67 120.52 0"/></g></g></svg>